<?xml version="1.0" encoding="UTF-8"?>
<svg viewBox="0 0 529.88 358.46" xmlns="http://www.w3.org/2000/svg" xmlns:xlink="http://www.w3.org/1999/xlink">
 <defs>
  <linearGradient id="c">
   <stop stop-color="#0f0" offset="0"/>
   <stop stop-color="#149e14" offset="1"/>
  </linearGradient>
  <linearGradient id="x" x1="-.024984" x2="1.025" y1=".50004" y2=".50004">
   <stop stop-color="#fff" offset="0"/>
   <stop stop-color="#fff" stop-opacity="0" offset="1"/>
  </linearGradient>
  <linearGradient id="b">
   <stop stop-color="#03c503" offset="0"/>
   <stop stop-color="#149e14" offset="1"/>
  </linearGradient>
  <linearGradient id="a">
   <stop stop-color="#00b700" offset="0"/>
   <stop stop-color="#149e14" offset="1"/>
  </linearGradient>
  <radialGradient id="al" cx="249.57" cy="385.16" r="18.872" gradientTransform="matrix(1 0 0 1.3981 -156.19 -387)" gradientUnits="userSpaceOnUse" xlink:href="#a"/>
  <radialGradient id="ak" cx="276.65" cy="406.31" r="46.344" gradientTransform="matrix(1 0 0 .69875 -156.19 -111.27)" gradientUnits="userSpaceOnUse" xlink:href="#a"/>
  <radialGradient id="aj" cx="428.3" cy="276.82" r="37.876" gradientTransform="matrix(1 0 0 .80664 -156.19 -180.14)" gradientUnits="userSpaceOnUse" xlink:href="#b"/>
  <radialGradient id="ai" cx="416.18" cy="338.44" r="41.916" gradientTransform="matrix(1 0 0 .87348 -156.19 -190.85)" gradientUnits="userSpaceOnUse" xlink:href="#a"/>
  <radialGradient id="an" cx="356.08" cy="340.2" r="25.754" gradientTransform="matrix(1 0 0 .98039 -156.19 -226.99)" gradientUnits="userSpaceOnUse" xlink:href="#b"/>
  <radialGradient id="am" cx="356.58" cy="396.05" r="43.937" gradientTransform="matrix(1 0 0 .77665 -156.19 -145.21)" gradientUnits="userSpaceOnUse" xlink:href="#a"/>
  <radialGradient id="ap" cx="458.63" cy="261.55" r="39.249" gradientTransform="matrix(1 0 0 .40805 -156.19 -78.838)" gradientUnits="userSpaceOnUse" xlink:href="#a"/>
  <radialGradient id="ah" cx="370.47" cy="296.01" r="33.077" gradientTransform="translate(-156.19 -233.67)" gradientUnits="userSpaceOnUse" xlink:href="#b"/>
  <radialGradient id="ao" cx="385.37" cy="262.2" r="33.835" gradientTransform="matrix(1 0 0 .46927 -156.19 -94.51)" gradientUnits="userSpaceOnUse" xlink:href="#b"/>
  <radialGradient id="ae" cx="299.76" cy="353.59" r="40.148" gradientTransform="matrix(1 0 0 .72324 -156.19 -135.81)" gradientUnits="userSpaceOnUse" xlink:href="#a"/>
  <radialGradient id="ag" cx="324.51" cy="281.36" r="28.027" gradientTransform="matrix(1 0 0 .67562 -156.19 -142.4)" gradientUnits="userSpaceOnUse" xlink:href="#b"/>
  <radialGradient id="aa" cx="202.49" cy="595.07" r="91.149" gradientTransform="matrix(.77944 .22752 -.15497 .53092 -19.308 -20.262)" gradientUnits="userSpaceOnUse" xlink:href="#c"/>
  <radialGradient id="y" cx="579.65" cy="607.9" r="91.149" gradientTransform="matrix(.72209 .10973 -.071194 .46849 38.885 -.22926)" gradientUnits="userSpaceOnUse" xlink:href="#c"/>
  <radialGradient id="z" cx="479.9" cy="580.26" r="49.913" gradientTransform="matrix(1.2752 .37502 -.18273 .62136 -182.64 -193.08)" gradientUnits="userSpaceOnUse" xlink:href="#c"/>
  <radialGradient id="ab" cx="172.32" cy="561.74" r="34.23" gradientTransform="matrix(.91469 .40416 -.39648 .8973 81.231 -237.85)" gradientUnits="userSpaceOnUse" xlink:href="#c"/>
  <radialGradient id="ac" cx="626.22" cy="459.72" r="42.716" gradientTransform="matrix(1 0 0 .86356 -156.19 -170.27)" gradientUnits="userSpaceOnUse" xlink:href="#c"/>
  <radialGradient id="af" cx="321.48" cy="311.92" r="28.027" gradientTransform="matrix(1 0 0 .75671 -156.19 -157.78)" gradientUnits="userSpaceOnUse" xlink:href="#b"/>
  <radialGradient id="ad" cx="398.21" cy="571.99" r="85.529" gradientTransform="matrix(1 0 0 .29581 -156.19 126.61)" gradientUnits="userSpaceOnUse">
   <stop stop-color="#ffbf00" offset="0"/>
   <stop stop-color="#f70" offset="1"/>
  </radialGradient>
  <radialGradient id="aq" cx="491" cy="316.6" r="39.374" gradientTransform="matrix(1 0 0 1.1638 -156.19 -285.53)" gradientUnits="userSpaceOnUse" xlink:href="#a"/>
 </defs>
 <g stroke="#000">
  <g fill-rule="evenodd">
   <path d="m171.67 269.41l-13.571 23.571s51.876 9.7846 87.143 8.5714c58.155-2.0005 80.714-5 80.714-5l-1.4286-26.429c-50.952-0.2381-101.9-35.104-152.86-0.71429z" fill="url(#ad)" stroke-width="3.2"/>
   <path d="m45.952 260.87l27.852 7.8316-44.28 80.705s-21.48-1.0946-21.069-17.086c0.48798-18.953 37.139-72.178 37.496-71.451z" fill="url(#ab)" stroke-width="3.105"/>
   <path d="m11.666 319.41c25 3.5714 18.571 28.571 18.571 28.571" fill="none" stroke-width="1.9"/>
   <path d="m425.97 225.43l-105.69 9.0099 76.703 122.17 102.49-3.2761-73.507-127.91z" fill="url(#y)" stroke-width="3.105"/>
   <path d="m98.809 295.12c-65-14.286-101.58-71.546-96.429-96.429 7.2908-35.203 32.857-88.571 32.857-88.571l70.714 12.143-7.1429 172.86z" fill="#16b705" stroke-width="3.8"/>
   <g stroke-width="3.105">
    <path d="m96.638 221.15l105.69 9.0099-76.703 122.17-102.49-3.2761 73.507-127.91z" fill="url(#aa)"/>
    <path d="m337.38 257.98s-61.488 91.09-22.143 97.143c18.571 2.8572 83.571 1.4286 83.571 1.4286l-61.429-98.571z" fill="url(#z)"/>
   </g>
   <path d="m445.95 213.7c50.795 3.9619 125.15-58.971 51.429 29.286-25 31.429-41.429 22.143-41.429 22.143l-10-51.429z" fill="url(#ac)" stroke-width="3"/>
  </g>
  <path d="m464.51 295.05c-31.565-45.149-129.93-6.0532-217.47-5.985-87.539 0.068176-187.82-36.034-193.93 5.5631 1.3498-148.95 93.885-283.4 207.43-281.63 111.94 1.7457 202.82 135.2 203.97 282.05z" fill="#01a81d" stroke-width="3.255"/>
 </g>
 <path d="m61.704 41.473a5.5081 10.421 0 1 1 0.3473 -0.15985" fill="url(#x)" stroke-width="3.105"/>
 <g stroke="#000">
  <g fill-rule="evenodd">
   <g fill="none">
    <g fill-opacity=".75">
     <g stroke-width="1.467">
      <path d="m373.81 315.12l16.429-13.571"/>
      <path d="m378.89 322.77c22.143-12.143 26.429-14.286 26.429-14.286"/>
      <path d="m382.38 327.27c20-2.1428 22.143-2.1428 22.143-2.1428"/>
     </g>
     <g stroke-width="2.2">
      <path d="m46.666 310.12c17.857-2.1428 22.143-3.5714 22.143-3.5714"/>
      <path d="m44.523 314.41c22.143 2.8571 24.286 2.8571 24.286 2.8571"/>
      <path d="m41.223 318.02c15.203 5.8467 15.886 5.6398 15.886 5.6398"/>
     </g>
     <g stroke-width="1.9">
      <path d="m37.38 326.55c20.714 0 20 24.286 20 24.286"/>
      <path d="m55.952 340.84c22.143-17.143 32.143 9.2857 32.143 9.2857"/>
      <path d="m302.92 336.55c20.714-15 35.893 20 35.893 20"/>
      <path d="m333.18 346.73c17.143-13.571 32.768 10.536 32.768 10.536"/>
      <path d="m385.24 331.91c28.125-10.357 40.179 23.75 40.179 23.75"/>
      <path d="m418.14 342.56c23.114-11.554 33.036 11.161 33.036 11.161"/>
      <path d="m442.23 342.46c7.9617-3.22 15.358 12.676 15.358 12.676"/>
     </g>
     <g stroke-width="1.467">
      <path d="m481.37 209.66l-0.007629 15.164"/>
      <path d="m483.49 209.65l3.2858 18.278"/>
      <path d="m485.24 208.33l4.7068 13.721"/>
     </g>
    </g>
    <path d="m74.881 177.75l48.74 26.769-5.0508 52.528-10.453 16.576s-22.336-2.1811-35.063 1.0714c-13.317 2.2948-18.18 10.811-18.163 10.477-1.5472-37.075 13.692-88.861 19.99-107.42z"/>
   </g>
   <path d="m74.613 177.8l48.882 26.72 42.805-13.132-8.3338-41.921-46.341-8.7126-37.013 37.046z" fill="url(#ak)"/>
   <path d="m75.008 177.37s4.1847-7.854 8.0812-20.203c8.2075-26.011 19.067-31.567 19.067-31.567l9.5965 14.774-36.744 36.997z" fill="url(#al)"/>
   <path d="m158.98 148.46l24.244-17.173-7.5762-31.315-38.891-8.5863s-4.5457 14.647-14.142 22.728c-9.5964 8.0812-18.688 13.132-18.688 13.132l8.0812 14.142 46.972 7.0711z" fill="url(#ae)"/>
   <path d="m175.14 98.962l17.678-17.678-11.617-23.739-38.386 8.5863s1.0102 8.0812-2.0203 14.142c-3.0305 6.0609-3.0305 11.617-3.0305 11.617l37.376 7.0711z" fill="url(#af)"/>
   <path d="m181.7 57.04l14.142-27.779s-22.728 9.5964-25.759 12.122c-3.0305 2.5254-29.294 24.749-29.294 24.749l40.911-9.0914z" fill="url(#ag)"/>
   <path d="m192.31 81.789l32.83 12.627-6.0609 34.345-34.85 2.5254-9.5964-31.82 17.678-17.678z" fill="url(#an)"/>
   <path d="m196.35 29.766l-14.647 26.769 11.112 25.254 32.325 13.132 21.718-22.223-12.627-28.789-37.881-14.142z" fill="url(#ah)"/>
   <path d="m166.05 191.39c55.053 5.5558 56.568 4.5457 56.568 4.5457l21.213-23.739-25.254-43.437-34.85 2.5254-26.769 17.678 9.0914 42.426z" fill="url(#am)"/>
   <g fill="none">
    <path d="m118.57 255.54l31.82 4.0406 9.5964 21.213-53.033-6.0609 11.617-19.193z"/>
    <path d="m167.56 191.9l16.668 24.244-34.345 43.437-30.81-4.5457 4.5457-50.002 43.942-13.132z"/>
    <path d="m183.22 215.13l26.264 10.102 13.132-29.294-55.053-4.0406 15.657 23.234z"/>
    <g fill-opacity=".75">
     <path d="m211 224.73l25.254 42.932-20.203 20.203-55.558-8.0812-10.102-21.213 33.84-42.932 26.769 9.0914z"/>
     <path d="m243.83 171.69l42.426 28.284-1.0102 33.84-48.992 33.335-25.254-43.437 11.617-28.284 21.213-23.739z"/>
     <path d="m235.24 268.67c37.881 18.688 39.901 18.183 39.901 18.183l33.84-3.5356 17.173-19.193-40.406-31.315-50.508 35.86z"/>
    </g>
   </g>
   <path d="m234.74 43.908l27.779-30.305s-22.223-1.5152-32.83 1.0102-33.84 14.647-33.84 14.647l38.891 14.647z" fill="url(#ao)"/>
   <path d="m247.87 73.203l46.972-3.5355 14.647-26.264-46.467-30.305-28.284 31.315 13.132 28.789z" fill="url(#aj)"/>
   <path d="m295.85 68.657l-48.74 3.7881-22.855 23.612-5.6821 32.704c13.258 3.0305 53.033 12.122 53.033 12.122l29.8-20.708-5.5558-51.518z" fill="url(#ai)"/>
   <path d="m272.62 140.88l25.254 36.366-11.743 22.476" fill="none"/>
   <path d="m263.69 12.373l46.309 31.031 31.188-5.6821-37.691-17.488-39.806-7.8602z" fill="url(#ap)"/>
   <g fill="none">
    <path d="m297.9 177.15l39.869 27.369 1.5152 29.294-12.627 30.305"/>
    <path d="m325.15 263.62l25.254 15.657"/>
    <path d="m340.3 233.82l42.426 11.617 6.566 28.789"/>
   </g>
   <path d="m295.93 67.658l5.4781 52.517 43.942 8.0812 23.234-26.769 5.0956-36.582-32.94-27.297-30.976 5.3819-13.833 24.668z" fill="url(#aq)"/>
   <g fill="none">
    <path d="m346.36 127.75l16.668 33.335-25.317 43.373"/>
    <path d="m368.27 101.37l39.107 25.179 12.143-4.2857"/>
    <path d="m363.13 161.05l42.103-4.4949 3.5714-30"/>
    <path d="m404.95 156.41l18.183 53.159-40.532 35.987"/>
    <path d="m423.13 209.07l28.789-5.5558"/>
   </g>
  </g>
  <path d="m76.837 64.838" fill="#fff" stroke-width="1.467"/>
  <g fill="none">
   <path d="m30.952 100.12l8.5714-9.2857"/>
   <path d="m110.24 90.838l7.1429 7.8571"/>
  </g>
 </g>
 <path d="m92.951 126.04a84.357 98.001 0 1 1 -0.003433 -1.4988" fill="#0f0" stroke="#000" stroke-width="2.22"/>
 <path d="m-31.762 166.29c40.714 47.302 78.571-0.87595 78.571-0.87595" fill="none" stroke="#ff5656" stroke-width="5"/>
 <path d="m72.65 67.868c-28.929-31.846-43.785-1.2739-43.785-1.2739" fill="none" stroke="#000" stroke-width="2.7"/>
 <path d="m77.918 121.7a31.152 34.728 0 1 1 0.24942 -0.53148" fill="#fff" stroke="#000" stroke-width="1.467"/>
 <path d="m64.992 120.9a5.0508 8.0812 0 1 1 -1.83e-4 -0.12363" stroke-width="1.467"/>
 <path d="m48.983 70.438c-26.95 1.0031-31.808 28.287-29.382 30.539 2.4268 2.2524 61.732 3.0228 64.417 3.0228 2.6848 0-8.0857-34.565-35.036-33.562z" fill="#0f0" fill-rule="evenodd" stroke="#000"/>
 <path d="m-9.9687 65.683c-28.929-31.846-43.785-1.2738-43.785-1.2738" fill="none" stroke="#000" stroke-width="2.7"/>
 <path d="m-4.6998 119.51a31.152 34.728 0 1 1 0.24942 -0.53148" fill="#fff" stroke="#000" stroke-width="1.467"/>
 <path d="m-17.626 118.71a5.0508 8.0812 0 1 1 -1.83e-4 -0.12363" stroke-width="1.467"/>
 <path d="m-33.635 68.253c-26.95 1.0031-31.808 28.287-29.382 30.539 2.4268 2.2524 61.732 3.0228 64.417 3.0228 2.6848 0-8.0857-34.565-35.036-33.562z" fill="#0f0" fill-rule="evenodd" stroke="#000"/>
</svg>
